<?xml version="1.0" encoding="UTF-8" standalone="no"?>
<svg
   width="1024"
   height="1024"
   version="1.1"
   viewBox="0 0 1024 1024"
   id="svg4"
   sodipodi:docname="atlas.svg"
   inkscape:version="1.4.2 (f4327f4, 2025-05-13)"
   inkscape:export-filename="atlas.png"
   inkscape:export-xdpi="96"
   inkscape:export-ydpi="96"
   xmlns:inkscape="http://www.inkscape.org/namespaces/inkscape"
   xmlns:sodipodi="http://sodipodi.sourceforge.net/DTD/sodipodi-0.dtd"
   xmlns="http://www.w3.org/2000/svg"
   xmlns:svg="http://www.w3.org/2000/svg">
  <defs
     id="defs4" />
  <sodipodi:namedview
     id="namedview4"
     pagecolor="#ffffff"
     bordercolor="#eeeeee"
     borderopacity="1"
     inkscape:showpageshadow="0"
     inkscape:pageopacity="0"
     inkscape:pagecheckerboard="0"
     inkscape:deskcolor="#505050"
     showgrid="true"
     inkscape:zoom="2.8284271"
     inkscape:cx="474.29188"
     inkscape:cy="664.15005"
     inkscape:window-width="1920"
     inkscape:window-height="1017"
     inkscape:window-x="-8"
     inkscape:window-y="-8"
     inkscape:window-maximized="1"
     inkscape:current-layer="layer3"
     inkscape:export-bgcolor="#00000000">
    <inkscape:grid
       id="grid4"
       units="px"
       originx="0"
       originy="0"
       spacingx="4"
       spacingy="4"
       empcolor="#0000ff"
       empopacity="0.25098039"
       color="#0000ff"
       opacity="0.1254902"
       empspacing="4"
       enabled="true"
       visible="true" />
  </sodipodi:namedview>
  <g
     inkscape:groupmode="layer"
     id="layer3"
     inkscape:label="Sprites">
    <g
       inkscape:groupmode="layer"
       id="layer1"
       inkscape:label="Guides"
       style="display:inline">
      <rect
         style="fill:none;fill-opacity:1;stroke:#0000ff;stroke-width:16;stroke-dasharray:none;stroke-opacity:1;paint-order:fill markers stroke"
         id="rect45"
         width="80"
         height="816"
         x="424"
         y="8" />
      <circle
         style="fill:none;fill-opacity:1;stroke:#0000ff;stroke-width:2;stroke-dasharray:none;stroke-opacity:1;paint-order:normal"
         id="path7"
         cx="96"
         cy="140.21213"
         r="80" />
      <rect
         style="fill:none;fill-opacity:1;stroke:#0000ff;stroke-width:16;stroke-dasharray:none;stroke-opacity:1;paint-order:normal"
         id="rect7"
         width="176"
         height="272"
         x="8"
         y="8" />
      <rect
         style="display:inline;fill:none;fill-opacity:1;stroke:#0000ff;stroke-width:16;stroke-dasharray:none;stroke-opacity:1;paint-order:normal"
         id="rect7-1"
         width="416"
         height="368"
         x="8"
         y="280" />
      <rect
         style="fill:none;fill-opacity:1;stroke:#0000ff;stroke-width:15.9999;stroke-dasharray:none;stroke-opacity:1;paint-order:normal"
         id="rect8"
         width="64.000046"
         height="64.000046"
         x="183.99998"
         y="8" />
      <path
         style="display:inline;fill:none;stroke:#0000ff;stroke-width:2;stroke-linecap:butt;stroke-linejoin:miter;stroke-dasharray:none;stroke-opacity:1"
         d="m 424,656 h 80"
         id="path45"
         sodipodi:nodetypes="cc" />
    </g>
    <g
       id="g10"
       transform="matrix(6.25,0,0,6.25,296,-6035.1914)"
       style="stroke-width:0.16;paint-order:fill markers stroke"
       inkscape:label="DoorVertical">
      <rect
         style="stroke-width:1.28;paint-order:fill markers stroke;fill:#636363;fill-opacity:1;stroke:#000000;stroke-dasharray:none;stroke-opacity:1"
         id="rect44"
         width="8.7779007"
         height="125.93885"
         x="22.490932"
         y="969.34125"
         inkscape:label="Border" />
      <rect
         style="stroke-width:1.28;paint-order:fill markers stroke;fill:#000000;fill-opacity:0.247059"
         id="rect8-1"
         width="7.4976654"
         height="44.720161"
         x="28.251167"
         y="1068.6094"
         transform="translate(-5.1199984,-18.689376)"
         inkscape:label="Front" />
      <rect
         style="stroke-width:1.28;paint-order:fill markers stroke;fill:#000000;fill-opacity:0.74902"
         id="rect9-2"
         width="7.4979019"
         height="79.938728"
         x="28.250931"
         y="988.67065"
         inkscape:label="Top"
         transform="translate(-5.1199984,-18.689376)" />
      <rect
         style="stroke-width:16;paint-order:fill markers stroke;fill:none;fill-opacity:1;stroke:none;stroke-dasharray:none;stroke-opacity:1"
         id="rect46"
         width="64"
         height="800"
         x="432"
         y="16"
         inkscape:label="Bounds"
         transform="matrix(0.16,0,0,0.16,-47.36,965.63062)" />
    </g>
    <g
       id="g3"
       inkscape:label="DoorHorizontal">
      <path
         id="rect5"
         style="fill:#000000;fill-opacity:1;stroke:none;stroke-width:0.609;stroke-opacity:0.356863;paint-order:stroke fill markers"
         inkscape:label="Border"
         d="m 16,288 v 72 H 38 V 568 H 16 v 72 h 400 v -72 h -22 v -72 h 22 v -76 h -22 v -60 h 22 v -72 z m 58,72 h 28 V 568 H 74 Z m 64,0 h 28 v 208 h -28 z m 64,0 h 28 v 208 h -28 z m 64,0 h 28 v 60 h -4 v 76 h 4 v 72 h -28 z m 64,0 h 28 v 60 h -28 z m 0,136 h 28 v 72 h -28 z"
         sodipodi:nodetypes="ccccccccccccccccccccccccccccccccccccccccccccccccccc" />
      <path
         id="rect4"
         style="fill:#636363;fill-opacity:1;stroke:none;stroke-width:0.609;stroke-opacity:0.356863;paint-order:stroke fill markers"
         inkscape:label="Color"
         d="m 24,296 v 56 h 384 v -56 z m 270,128 v 68 H 412 V 424 Z M 24,576 v 56 h 384 v -56 z"
         sodipodi:nodetypes="ccccccccccccccc" />
      <path
         id="rect11"
         style="fill:#000000;fill-opacity:0.247059;stroke:none;stroke-width:0.609;stroke-opacity:0.356863;paint-order:stroke fill markers"
         inkscape:label="Front"
         d="m 24,336 v 16 h 384 v -16 z m 270,100 v 56 H 412 V 436 Z M 24,616 v 16 h 384 v -16 z"
         sodipodi:nodetypes="ccccccccccccccc" />
      <path
         id="rect10"
         style="fill:#000000;fill-opacity:0.74902;stroke:none;stroke-width:0.609;stroke-opacity:0.356863;paint-order:stroke fill markers"
         inkscape:label="Top"
         d="m 24,296 v 40 h 384 v -40 z m 270,128 v 12 H 412 V 424 Z M 24,576 v 40 h 384 v -40 z"
         sodipodi:nodetypes="ccccccccccccccc" />
      <path
         id="path195-7"
         style="display:inline;fill:#000000;fill-opacity:1;stroke-width:3.00093;stroke-opacity:0.906301;paint-order:stroke markers fill"
         d="m 392,448 c -4.41828,0 -8,3.58172 -8,8 -0.002,2.95562 1.62667,5.67128 4.23439,7.06249 L 384,479.99999 h 16 l -4.2344,-16.9375 c 2.60772,-1.39121 4.23593,-4.10687 4.2344,-7.06249 0,-4.41828 -3.58172,-8 -8,-8 z"
         inkscape:label="Keyhole"
         sodipodi:nodetypes="sccccccs" />
      <path
         id="path32"
         style="display:inline;fill:#636363;fill-opacity:1;stroke:none;stroke-width:0.609;stroke-opacity:0.356863;paint-order:stroke fill markers"
         inkscape:label="Bars"
         d="m 42,352 v 244 c 0,2.89949 6.268014,5.25 14,5.25 7.731986,0 14,-2.35051 14,-5.25 V 352 Z m 64,0 v 244 c 0,2.89949 6.26801,5.25 14,5.25 7.73199,0 14,-2.35051 14,-5.25 V 352 Z m 64,0 v 244 c 0,2.89949 6.26801,5.25 14,5.25 7.73199,0 14,-2.35051 14,-5.25 V 352 Z m 64,0 v 244 c 0,2.89949 6.26801,5.25 14,5.25 7.73199,0 14,-2.35051 14,-5.25 V 352 Z m 128,0 v 78 c 0,2.89949 6.26801,5.25 14,5.25 7.73199,0 14,-2.35051 14,-5.25 v -78 z m 0,140 v 104 c 0,2.89949 6.26801,5.25 14,5.25 7.73199,0 14,-2.35051 14,-5.25 V 492 Z M 298,352 v 78 c 0,2.89949 6.26801,5.25 14,5.25 7.73199,0 14,-2.35051 14,-5.25 v -78 z m 0,140 v 104 c 0,2.89949 6.26801,5.25 14,5.25 7.73199,0 14,-2.35051 14,-5.25 V 492 Z"
         sodipodi:nodetypes="cssscccssscccssscccssscccssscccssscccssscccssscc" />
      <path
         id="path44"
         style="fill:#191919;fill-opacity:1;stroke:none;stroke-width:8;stroke-dasharray:none;stroke-opacity:1;paint-order:stroke fill markers"
         d="m 300,440 c -1.10457,0 -2,0.89543 -2,2 0,1.10457 0.89543,2 2,2 1.10457,0 2,-0.89543 2,-2 0,-1.10457 -0.89543,-2 -2,-2 z m 53,0 c -1.10457,0 -2,0.89543 -2,2 0,1.10457 0.89543,2 2,2 1.10457,0 2,-0.89543 2,-2 0,-1.10457 -0.89543,-2 -2,-2 z m 53,0 c -1.10457,0 -2,0.89543 -2,2 0,1.10457 0.89543,2 2,2 1.10457,0 2,-0.89543 2,-2 0,-1.10457 -0.89543,-2 -2,-2 z m -106,44 c -1.10457,0 -2,0.89543 -2,2 0,1.10457 0.89543,2 2,2 1.10457,0 2,-0.89543 2,-2 0,-1.10457 -0.89543,-2 -2,-2 z m 53,0 c -1.10457,0 -2,0.89543 -2,2 0,1.10457 0.89543,2 2,2 1.10457,0 2,-0.89543 2,-2 0,-1.10457 -0.89543,-2 -2,-2 z m 53,0 c -1.10457,0 -2,0.89543 -2,2 0,1.10457 0.89543,2 2,2 1.10457,0 2,-0.89543 2,-2 0,-1.10457 -0.89543,-2 -2,-2 z"
         inkscape:label="Rivets"
         sodipodi:nodetypes="ssssssssssssssssssssssssssssss" />
    </g>
    <g
       stroke-width="6"
       id="g4"
       inkscape:label="Pawn"
       transform="matrix(1.3333333,0,0,1.3333333,-74.666662,-26.666664)">
      <path
         d="m 80,112 c 32,-16 64,-16 96,0 v 96 c -32,16 -64,16 -96,0 z"
         fill="#fdab11"
         id="path1"
         style="stroke:#000000;stroke-width:6;stroke-linecap:round;stroke-linejoin:round"
         inkscape:label="Body" />
      <path
         d="M 128,176 V 100"
         fill="#ffffff"
         stroke-opacity="0.4"
         id="path2"
         style="stroke:#000000;stroke-width:6;stroke-linecap:round;stroke-linejoin:round"
         inkscape:label="Stripe" />
      <circle
         cx="128"
         cy="80"
         fill="#f6e9d0"
         id="circle2"
         style="stroke:#000000;stroke-width:6;stroke-linecap:round;stroke-linejoin:round"
         r="44"
         inkscape:label="Head" />
      <circle
         cx="112"
         cy="80"
         id="circle3"
         r="4"
         inkscape:label="Eye1"
         style="stroke-width:6" />
      <circle
         cx="144"
         cy="80"
         id="circle4"
         r="4"
         inkscape:label="Eye2"
         style="stroke-width:6" />
      <rect
         style="fill:none;fill-opacity:0.448795;stroke:none;stroke-width:0.0377953;paint-order:stroke markers fill"
         id="rect1"
         width="160"
         height="256"
         x="16"
         y="16"
         transform="matrix(0.75000002,0,0,0.75000002,55.999998,19.999998)"
         inkscape:label="Bounds" />
    </g>
    <circle
       style="fill:#f6e9d0;fill-opacity:1;stroke:#000000;stroke-width:3.99999;stroke-dasharray:none;stroke-opacity:1;paint-order:normal"
       id="path5"
       cx="216.00002"
       cy="40"
       r="22"
       inkscape:label="PawnProjectile" />
    <rect
       style="fill:#000000;stroke-width:16;paint-order:fill markers stroke"
       id="rect2"
       width="32"
       height="160"
       x="528"
       y="656" />
  </g>
</svg>
