<?xml version="1.0" encoding="UTF-8" standalone="no"?>
<!-- Created with Inkscape (http://www.inkscape.org/) -->

<svg
   width="1024"
   height="1024"
   viewBox="0 0 270.93333 270.93333"
   version="1.1"
   id="svg1"
   inkscape:version="1.4.2 (f4327f4, 2025-05-13)"
   sodipodi:docname="tileset.svg"
   inkscape:export-filename="tileset.png"
   inkscape:export-xdpi="96"
   inkscape:export-ydpi="96"
   xmlns:inkscape="http://www.inkscape.org/namespaces/inkscape"
   xmlns:sodipodi="http://sodipodi.sourceforge.net/DTD/sodipodi-0.dtd"
   xmlns:xlink="http://www.w3.org/1999/xlink"
   xmlns="http://www.w3.org/2000/svg"
   xmlns:svg="http://www.w3.org/2000/svg">
  <sodipodi:namedview
     id="namedview1"
     pagecolor="#ffffff"
     bordercolor="#666666"
     borderopacity="1.0"
     inkscape:showpageshadow="2"
     inkscape:pageopacity="0.0"
     inkscape:pagecheckerboard="0"
     inkscape:deskcolor="#d1d1d1"
     inkscape:document-units="mm"
     showgrid="true"
     inkscape:zoom="16"
     inkscape:cx="6.5625"
     inkscape:cy="11.46875"
     inkscape:window-width="1920"
     inkscape:window-height="1017"
     inkscape:window-x="-8"
     inkscape:window-y="-8"
     inkscape:window-maximized="1"
     inkscape:current-layer="g2"
     showguides="false">
    <inkscape:grid
       id="grid1"
       units="px"
       originx="0"
       originy="0"
       spacingx="0.26458333"
       spacingy="0.13229167"
       empcolor="#3f3fff"
       empopacity="0.35294118"
       color="#3f3fff"
       opacity="0.1254902"
       empspacing="8"
       enabled="true"
       visible="true" />
  </sodipodi:namedview>
  <defs
     id="defs1">
    <clipPath
       clipPathUnits="userSpaceOnUse"
       id="clipPath3">
      <use
         x="0"
         y="0"
         xlink:href="#g2"
         id="use3" />
    </clipPath>
  </defs>
  <g
     inkscape:label="Layer 1"
     inkscape:groupmode="layer"
     id="layer1">
    <rect
       style="fill:#5f4a35;fill-opacity:1;stroke-width:1.32292;paint-order:stroke markers fill"
       id="rect3"
       width="4.2333331"
       height="4.2333331"
       x="0"
       y="4.1666667e-08" />
    <g
       id="g3"
       clip-path="url(#clipPath3)"
       style="fill:none">
      <g
         inkscape:label="Clip"
         id="g2"
         style="fill:none">
        <rect
           style="display:inline;fill:#73868c;fill-opacity:1;stroke:none;stroke-width:2.117;stroke-dasharray:none;paint-order:stroke markers fill"
           id="rect4"
           width="4.2333331"
           height="4.2333331"
           x="4.2333331"
           y="0"
           inkscape:label="Back" />
        <rect
           style="fill:#819298;fill-opacity:1;stroke:none;stroke-width:2.11701;stroke-dasharray:none;paint-order:stroke markers fill"
           id="rect1"
           width="3.1750004"
           height="2.1166663"
           x="4.7624998"
           y="0.52916682"
           inkscape:label="Top" />
        <path
           id="path8"
           style="fill:none;stroke:#5c7870;stroke-width:0.06614583;stroke-linecap:butt;stroke-linejoin:miter;stroke-opacity:1;stroke-dasharray:none"
           d="M 8.4666663,4.233333 7.9374996,2.6458332 M 8.4666663,0 7.9374996,0.52916663 M 4.233333,0 4.7624997,0.52916663 M 4.233333,4.233333 4.7624997,2.6458332 m 10e-8,-2.11666656 H 7.9374995 V 2.6458332 H 4.7624998 Z M 4.2333331,1.3587595e-7 H 8.4666662 V 4.2333332 H 4.2333331 Z M 4.3656245,3.8364585 H 8.3343746 M 4.6302079,3.0427086 H 8.0697913 M 4.233333,3.7041664 c 0.1763887,0 0.1763887,0 0.1763887,0 m 4.0569446,0 c -0.176389,0 -0.176389,0 -0.176389,0 M 8.202083,2.9104166 c -0.176389,0 -0.176389,0 -0.176389,0 M 8.202083,3.175 c 0.2645833,0 0.2645833,0 0.2645833,0 M 8.202083,2.6458332 c 0.2645833,0 0.2645833,0 0.2645833,0 M 7.9374996,2.3812499 c 0.2645834,0 0.2645834,0 0.2645834,0 m 0,-0.2645833 c 0.2645833,0 0.2645833,0 0.2645833,0 M 7.9374996,1.8520832 c 0.2645834,0 0.2645834,0 0.2645834,0 m 0,-0.2645833 c 0.2645833,0 0.2645833,0 0.2645833,0 M 7.9374996,1.3229166 c 0.2645834,0 0.2645834,0 0.2645834,0 m 0,-0.2645833 c 0.2645833,0 0.2645833,0 0.2645833,0 M 8.202083,0.52916663 c 0.2645833,0 0.2645833,0 0.2645833,0 M 7.9374996,0.79374996 c 0.2645834,0 0.2645834,0 0.2645834,0 M 7.9374996,0.26458332 C 7.9374996,0 7.9374996,0 7.9374996,0 M 7.6729163,0.26458332 c 0,0.26458331 0,0.26458331 0,0.26458331 M 7.408333,0.26458332 C 7.408333,0 7.408333,0 7.408333,0 M 7.1437496,0.26458332 c 0,0.26458331 0,0.26458331 0,0.26458331 M 6.8791663,0.26458332 C 6.8791663,0 6.8791663,0 6.8791663,0 M 6.614583,0.26458332 c 0,0.26458331 0,0.26458331 0,0.26458331 M 6.3499997,0.26458332 C 6.3499997,0 6.3499997,0 6.3499997,0 M 6.0854163,0.26458332 c 0,0.26458331 0,0.26458331 0,0.26458331 M 5.820833,0.26458332 C 5.820833,0 5.820833,0 5.820833,0 M 5.5562497,0.26458332 c 0,0.26458331 0,0.26458331 0,0.26458331 M 5.2916663,0 c 0,0.26458332 0,0.26458332 0,0.26458332 M 4.7624997,0 c 0,0.26458332 0,0.26458332 0,0.26458332 m 0.2645833,0 c 0,0.26458331 0,0.26458331 0,0.26458331 M 4.4979163,2.9104166 c 0.1763888,0 0.1763888,0 0.1763888,0 M 4.233333,3.175 c 0.2645833,0 0.2645833,0 0.2645833,0 M 4.233333,2.6458332 c 0.2645833,0 0.2645833,0 0.2645833,0 m 0,-0.2645833 c 0.2645834,0 0.2645834,0 0.2645834,0 M 4.233333,2.1166666 c 0.2645833,0 0.2645833,0 0.2645833,0 m 0,-0.2645834 c 0.2645834,0 0.2645834,0 0.2645834,0 M 4.233333,1.5874999 c 0.2645833,0 0.2645833,0 0.2645833,0 m 0,-0.2645833 c 0.2645834,0 0.2645834,0 0.2645834,0 M 4.233333,1.0583333 c 0.2645833,0 0.2645833,0 0.2645833,0 m 0,-0.26458334 c 0.2645834,0 0.2645834,0 0.2645834,0 M 4.233333,0.52916663 c 0.2645833,0 0.2645833,0 0.2645833,0 m 0,-0.26458331 c 3.7041667,0 3.7041667,0 3.7041667,0 m 0,3.17499968 c 0,-3.17499968 0,-3.17499968 0,-3.17499968 M 4.4979163,3.439583 c 3.7041667,0 3.7041667,0 3.7041667,0 m -3.7041667,2e-7 v -3.17499976 -1.2e-7 m 1.5875,2.77812528 c 0,-0.396875 0,-0.396875 0,-0.396875 m -0.5291666,0.396875 c 0,-0.3968755 0,-0.3968755 0,-0.3968755 M 5.820833,3.4395836 c 0,-0.396875 0,-0.396875 0,-0.396875 m -0.79375,0 c 0,-0.396875 0,-0.396875 0,-0.396875 m 0.2645833,0.79375 c 0,-0.396875 0,-0.396875 0,-0.396875 m -0.5291666,0.396875 c 0,-0.396875 0,-0.396875 0,-0.396875 m 0.79375,0.7937499 c 0,-0.3968749 0,-0.3968749 0,-0.3968749 M 5.027083,3.8364585 c 0,-0.3968749 0,-0.3968749 0,-0.3968749 M 4.4979163,3.8364585 c 0,-0.3968749 0,-0.3968749 0,-0.3968749 m 0.2645834,0.7937499 c 0,-0.396875 0,-0.396875 0,-0.396875 m 0.5291666,0.396875 c 0,-0.396875 0,-0.396875 0,-0.396875 m 0.5291667,0.396875 c 0,-0.396875 0,-0.396875 0,-0.396875 m 0.2645833,0 c 0,-0.3987043 0,-0.3987043 0,-0.3987043 M 6.614583,3.0427086 c 0,-0.3968755 0,-0.3968755 0,-0.3968755 m 0.5291666,0.3968755 c 0,-0.3968755 0,-0.3968755 0,-0.3968755 m 0.5291667,0.3968755 c 0,-0.3968755 0,-0.3968755 0,-0.3968755 m 0.2645833,0.7937505 c 0,-0.396875 0,-0.396875 0,-0.396875 M 7.408333,3.4395836 c 0,-0.396875 0,-0.396875 0,-0.396875 m -0.5291667,0.396875 c 0,-0.396875 0,-0.396875 0,-0.396875 m 0.2645833,0.7937499 c 0,-0.3968749 0,-0.3968749 0,-0.3968749 M 8.202083,3.8364585 c 0,-0.3968749 0,-0.3968749 0,-0.3968749 m -0.5291667,0 c 0,0.3968749 0,0.3968749 0,0.3968749 m 0.2645833,0 c 0,0.3968745 0,0.3968745 0,0.3968745 M 7.408333,3.8364585 c 0,0.396875 0,0.396875 0,0.396875 M 6.8791663,3.8364585 c 0,0.3968745 0,0.3968745 0,0.3968745 M 6.614583,3.4395836 c 0,0.3968749 0,0.3968749 0,0.3968749 m -0.2645833,0 c 0,0.396875 0,0.396875 0,0.396875 m 0,-1.1906249 c 0,0.396875 0,0.396875 0,0.396875" />
      </g>
    </g>
  </g>
</svg>
